<svg version="1.1" id="Layer_1" xmlns="http://www.w3.org/2000/svg" xmlns:xlink="http://www.w3.org/1999/xlink" x="0px" y="0px"
	 width="100%" viewBox="0 0 86 82" enable-background="new 0 0 86 82" xml:space="preserve">
<path fill="#FFFFFF" opacity="1.000000" stroke="none" 
	d="
M56.000000,83.000000 
	C37.333340,83.000000 19.166677,83.000000 1.000012,83.000000 
	C1.000008,55.666679 1.000008,28.333361 1.000004,1.000031 
	C29.666643,1.000020 58.333286,1.000020 86.999954,1.000010 
	C86.999969,28.333303 86.999969,55.666607 86.999985,82.999954 
	C76.833336,83.000000 66.666664,83.000000 56.000000,83.000000 
M10.824180,9.046462 
	C10.216488,10.693966 9.091725,12.337916 9.080374,13.989518 
	C8.954480,32.306774 8.995649,50.625221 9.010693,68.943329 
	C9.011998,70.533859 9.148451,72.124275 9.220411,73.677719 
	C31.714247,73.677719 53.616436,73.677719 75.583969,73.677719 
	C75.583969,52.000099 75.583969,30.646349 75.583969,9.008388 
	C54.035336,9.008388 32.900570,9.008388 10.824180,9.046462 
z"/>
<path fill="#B494B3" opacity="1.000000" stroke="none" 
	d="
M11.294992,9.027425 
	C32.900570,9.008388 54.035336,9.008388 75.583969,9.008388 
	C75.583969,30.646349 75.583969,52.000099 75.583969,73.677719 
	C53.616436,73.677719 31.714247,73.677719 9.220411,73.677719 
	C9.148451,72.124275 9.011998,70.533859 9.010693,68.943329 
	C8.995649,50.625221 8.954480,32.306774 9.080374,13.989518 
	C9.091725,12.337916 10.216488,10.693966 11.294992,9.027425 
M31.455425,31.972013 
	C26.092718,38.457161 25.512068,45.162930 29.797462,51.119370 
	C34.180408,57.211403 42.115360,59.578011 49.413029,56.969730 
	C56.241375,54.529198 60.626808,48.087536 59.929066,41.141956 
	C59.327633,35.155067 55.979492,30.893040 50.575245,28.539993 
	C43.877575,25.623779 37.569851,26.584211 31.455425,31.972013 
z"/>
<path fill="#2C335A" opacity="1.000000" stroke="none" 
	d="
M31.718998,31.712120 
	C37.569851,26.584211 43.877575,25.623779 50.575245,28.539993 
	C55.979492,30.893040 59.327633,35.155067 59.929066,41.141956 
	C60.626808,48.087536 56.241375,54.529198 49.413029,56.969730 
	C42.115360,59.578011 34.180408,57.211403 29.797462,51.119370 
	C25.512068,45.162930 26.092718,38.457161 31.718998,31.712120 
z"/>
</svg>